<svg width="18" height="14" viewBox="0 0 18 14" fill="none" xmlns="http://www.w3.org/2000/svg">
<path fill-rule="evenodd" clip-rule="evenodd" d="M17.53 6.46997C17.6704 6.6106 17.7493 6.80122 17.7493 6.99997C17.7493 7.19872 17.6704 7.38934 17.53 7.52997L11.53 13.53C11.4613 13.6037 11.3785 13.6628 11.2865 13.7038C11.1945 13.7447 11.0952 13.7668 10.9945 13.7686C10.8938 13.7703 10.7938 13.7518 10.7004 13.7141C10.607 13.6764 10.5222 13.6202 10.451 13.549C10.3797 13.4778 10.3236 13.393 10.2859 13.2996C10.2481 13.2062 10.2296 13.1062 10.2314 13.0054C10.2332 12.9047 10.2552 12.8054 10.2962 12.7134C10.3372 12.6214 10.3963 12.5386 10.47 12.47L15.19 7.74997L0.999988 7.74997C0.801077 7.74997 0.610309 7.67095 0.469658 7.5303C0.329006 7.38965 0.249988 7.19888 0.249988 6.99997C0.249988 6.80106 0.329006 6.61029 0.469658 6.46964C0.610309 6.32899 0.801077 6.24997 0.999988 6.24997L15.19 6.24997L10.47 1.52997C10.3963 1.46131 10.3372 1.37851 10.2962 1.28651C10.2552 1.19451 10.2332 1.0952 10.2314 0.994493C10.2296 0.89379 10.2481 0.79376 10.2859 0.700372C10.3236 0.606984 10.3797 0.52215 10.451 0.450932C10.5222 0.379713 10.607 0.323568 10.7004 0.285847C10.7938 0.248126 10.8938 0.229602 10.9945 0.231379C11.0952 0.233155 11.1945 0.255197 11.2865 0.296189C11.3785 0.337181 11.4613 0.396283 11.53 0.46997L17.53 6.46997Z" fill="url(#paint0_linear_138_491)"/>
<defs>
<linearGradient id="paint0_linear_138_491" x1="8.99966" y1="0.231262" x2="8.99966" y2="13.7687" gradientUnits="userSpaceOnUse">
<stop stop-color="#EB001B"/>
<stop offset="1" stop-color="#85000F"/>
</linearGradient>
</defs>
</svg>