<svg width="22" height="22" viewBox="0 0 22 22" fill="none" xmlns="http://www.w3.org/2000/svg"><path d="M11 21C12.3135 21.0017 13.6143 20.7438 14.8278 20.2411C16.0413 19.7385 17.1435 19.001 18.071 18.071C19.001 17.1435 19.7385 16.0413 20.2412 14.8278C20.7438 13.6143 21.0017 12.3135 21 11C21.0017 9.68653 20.7438 8.38568 20.2411 7.17221C19.7385 5.95873 19.001 4.85655 18.071 3.92899C17.1435 2.99901 16.0413 2.26149 14.8278 1.75884C13.6143 1.25618 12.3135 0.998291 11 0.999993C9.68654 0.998319 8.38569 1.25622 7.17221 1.75887C5.95874 2.26153 4.85655 2.99903 3.929 3.92899C2.99904 4.85655 2.26154 5.95873 1.75888 7.17221C1.25623 8.38568 0.998326 9.68653 1 11C0.998299 12.3135 1.25619 13.6143 1.75884 14.8278C2.2615 16.0413 2.99901 17.1435 3.929 18.071C4.85655 19.001 5.95874 19.7385 7.17221 20.2411C8.38569 20.7438 9.68654 21.0017 11 21Z" stroke="#151515" stroke-width="2" stroke-linejoin="round"/><path d="M7 11L10 14L16 8" stroke="#151515" stroke-width="2" stroke-linecap="round" stroke-linejoin="round"/></svg>