<svg width="524" height="478" viewBox="0 0 524 478" fill="none" xmlns="http://www.w3.org/2000/svg">
<mask id="mask0_376_221" style="mask-type:luminance" maskUnits="userSpaceOnUse" x="0" y="0" width="524" height="478">
<path d="M523.526 0H0V478H523.526V0Z" fill="white"/>
</mask>
<g mask="url(#mask0_376_221)">
<path d="M304.473 403.883C269.633 370.377 250.817 327.557 233.877 283.474C225.909 262.724 216.321 242.651 203.717 224.141C193.064 208.5 179.26 201.243 159.709 200.912C115.37 200.161 77.2135 214.089 45.8688 245.19C8.89745 281.896 -1.74083 341.62 19.6408 387.416C20.451 389.143 19.7758 392.93 23.767 392.133L23.617 391.983C22.1915 396.175 25.5526 398.684 27.3381 401.479C45.8238 430.462 72.0369 449.889 104.312 460.421C150.991 475.671 196.785 473.703 240.254 449.017C259.775 437.929 273.054 420.861 282.897 400.953C284.202 398.309 285.493 395.649 286.198 394.192C291.119 398.504 296.116 402.876 301.112 407.248C307.099 412.041 305.224 415.602 300.317 420.41C244.08 475.431 158.434 493.521 88.9771 463.757C47.0092 445.772 15.9196 416.383 4.38106 370.873C-14.1497 297.777 28.1034 224.471 100.696 201.138C121.192 194.542 142.169 192.558 163.52 193.084C173.348 193.325 182.831 191.627 192.104 188.141C214.536 179.712 230.021 163.666 241.829 143.487C273.144 90.029 238.258 9.03014 163.52 8.4592C149.521 8.35403 135.521 8.6996 121.522 8.29393C115.67 8.12865 114.065 9.79641 114.095 15.7462C114.335 71.8189 114.14 127.892 114.38 183.964C114.41 189.944 112.939 192.543 106.833 193.851C94.8589 196.42 83.5905 201.348 72.8171 207.133C67.6705 209.897 65.915 210.303 65.945 203.256C66.1851 148.941 66.05 94.6116 66.035 40.2968C66.035 15.1452 60.4983 9.43581 35.3956 8.66955C32.6498 8.5794 29.9039 8.53432 27.1431 8.44418C24.2322 8.35403 23.3169 6.7013 23.4519 3.99683C23.557 1.65295 24.4122 0.150474 26.933 0.0753503C28.4335 0.0302758 29.9339 0.0152509 31.4344 0.0152509C76.4333 0.0152509 121.432 -0.150022 166.416 0.0453006C199.516 0.195549 230.771 7.40746 258.874 25.7678C261.755 27.6459 264.456 29.8095 267.202 31.8078C265.912 33.8812 264.186 33.0248 262.881 33.5056C258.499 35.1283 258.049 38.4638 258.349 42.6106C258.649 46.6974 260.525 48.4703 264.381 48.6356C266.377 48.7257 268.462 49.2666 270.353 48.861C282.117 46.2917 287.758 52.6472 292.545 62.3232C312.456 102.485 300.272 147.995 262.07 174.784C244.395 187.18 224.589 194.241 202.457 198.463C209.269 202.505 215.406 205.66 221.018 209.552C244.02 225.463 259.565 247.655 272.784 271.799C282.522 289.589 289.109 308.821 298.112 326.941C317.678 366.351 343.185 400.697 381.702 423.685C420.474 446.809 462.442 452.849 506.616 446.854C510.322 446.358 514.058 445.411 517.719 445.667C519.97 445.817 523.436 445.982 523.496 450.099C523.541 453.765 521.32 454.877 518.394 455.328C507.051 457.101 495.752 459.43 484.349 460.451C432.298 465.124 382.723 457.687 337.559 429.38C325.675 421.928 315.067 412.883 304.443 403.823L304.473 403.883Z" fill="url(#paint0_radial_376_221)"/>
<path d="M333.267 373.022C320.963 358.538 311.075 343.949 303.348 327.932C302.328 325.814 302.268 323.605 302.343 321.352C304.818 239.316 303.858 157.25 305.223 75.1999C305.614 51.2353 300.047 45.7813 275.919 45.0601C273.429 44.985 270.923 44.8798 268.432 44.9549C265.461 45.0301 262.805 44.8498 262.73 40.9133C262.64 36.7965 265.461 36.9016 268.357 36.9016C288.598 36.8566 308.825 36.7364 329.066 36.6763C349.547 36.6162 370.043 36.5711 390.525 36.5561C393.406 36.5561 396.962 35.7447 396.872 40.5677C396.782 45.2104 393.346 44.5493 390.42 44.6394C382.932 44.8498 375.46 45 368.123 46.9232C360.62 48.9065 356.104 53.3238 354.739 61.1968C352.668 73.1415 353.628 85.1614 353.508 97.1362C352.788 161.683 352.443 226.214 351.678 290.761C351.348 319.038 345.976 346.323 333.312 373.037L333.267 373.022Z" fill="#EB001B"/>
<path d="M23.7671 392.148C22.2066 384.967 25.0575 382.187 32.3047 383.073C35.4857 383.464 38.8017 383.043 42.0127 382.638C60.6485 380.354 65.8551 374.9 65.9751 356.029C66.2152 318.512 66.2602 281.01 65.8701 243.493C65.7951 236.236 68.0608 232.314 74.3927 228.919C85.196 223.119 96.2995 218.191 107.718 213.789C112.82 211.82 114.38 212.451 114.35 218.401C114.11 260.907 114.2 303.427 114.26 345.947C114.26 351.176 114.44 356.434 114.935 361.648C116.181 374.66 120.412 379.092 133.061 381.736C138.973 382.968 144.944 382.998 150.916 383.254C153.857 383.374 157.218 382.803 157.173 387.506C157.113 392.299 153.647 391.517 150.781 391.517C109.323 391.517 67.8807 391.502 26.4229 391.517C25.4926 391.517 24.5624 391.833 23.6321 392.013L23.7821 392.163L23.7671 392.148Z" fill="white"/>
</g>
<defs>
<radialGradient id="paint0_radial_376_221" cx="0" cy="0" r="1" gradientUnits="userSpaceOnUse" gradientTransform="translate(245.325 442.482) rotate(-123.16) scale(168.707 113.017)">
<stop stop-color="#EB001B"/>
<stop offset="1" stop-color="white"/>
</radialGradient>
</defs>
</svg>
