<svg width="524" height="478" viewBox="0 0 524 478" fill="none" xmlns="http://www.w3.org/2000/svg">
<mask id="mask0_376_242" style="mask-type:luminance" maskUnits="userSpaceOnUse" x="0" y="0" width="524" height="478">
<path d="M523.526 0H0V478H523.526V0Z" fill="white"/>
</mask>
<g mask="url(#mask0_376_242)">
<path d="M304.474 403.882C269.633 370.377 250.817 327.556 233.877 283.473C225.91 262.724 216.322 242.651 203.718 224.14C193.064 208.499 179.26 201.242 159.709 200.912C115.37 200.161 77.2137 214.089 45.8691 245.19C8.89769 281.896 -1.74058 341.619 19.641 387.415C20.4513 389.143 19.776 392.929 23.7673 392.133L23.6172 391.983C22.1918 396.175 25.5528 398.684 27.3384 401.478C45.8241 430.461 72.0371 449.888 104.312 460.421C150.991 475.671 196.786 473.703 240.254 449.017C259.775 437.929 273.054 420.86 282.897 400.952C284.202 398.308 285.493 395.649 286.198 394.191C291.12 398.503 296.116 402.876 301.113 407.248C307.1 412.041 305.224 415.602 300.317 420.41C244.08 475.43 158.434 493.52 88.9773 463.756C47.0094 445.771 15.9199 416.383 4.3813 370.873C-14.1494 297.777 28.1036 224.471 100.696 201.137C121.192 194.541 142.169 192.558 163.52 193.084C173.348 193.324 182.831 191.626 192.104 188.141C214.536 179.712 230.021 163.665 241.829 143.487C273.144 90.0285 238.258 9.02966 163.52 8.45871C149.521 8.35354 135.522 8.69911 121.522 8.29344C115.671 8.12817 114.065 9.79592 114.095 15.7457C114.335 71.8184 114.14 127.891 114.38 183.964C114.41 189.944 112.94 192.543 106.833 193.85C94.8592 196.419 83.5907 201.348 72.8174 207.132C67.6708 209.897 65.9153 210.302 65.9453 203.256C66.1853 148.941 66.0503 94.6111 66.0353 40.2963C66.0353 15.1447 60.4986 9.43533 35.3959 8.66906C32.65 8.57891 29.9042 8.53384 27.1433 8.44369C24.2324 8.35354 23.3171 6.70081 23.4522 3.99634C23.5572 1.65246 24.4125 0.149986 26.9332 0.074862C28.4337 0.0297875 29.9342 0.0147626 31.4346 0.0147626C76.4335 0.0147626 121.432 -0.150511 166.416 0.0448123C199.516 0.195061 230.771 7.40697 258.875 25.7673C261.756 27.6454 264.456 29.809 267.202 31.8073C265.912 33.8807 264.186 33.0243 262.881 33.5051C258.5 35.1278 258.049 38.4633 258.349 42.6101C258.65 46.6969 260.525 48.4698 264.381 48.6351C266.377 48.7252 268.463 49.2661 270.353 48.8605C282.117 46.2912 287.759 52.6467 292.545 62.3227C312.456 102.484 300.272 147.994 262.071 174.784C244.395 187.179 224.589 194.241 202.457 198.463C209.269 202.504 215.406 205.66 221.018 209.551C244.02 225.462 259.565 247.654 272.784 271.799C282.522 289.588 289.109 308.82 298.112 326.94C317.678 366.35 343.186 400.697 381.702 423.685C420.474 446.808 462.442 452.848 506.616 446.853C510.322 446.357 514.058 445.411 517.719 445.666C519.97 445.817 523.436 445.982 523.496 450.099C523.541 453.765 521.32 454.876 518.395 455.327C507.051 457.1 495.753 459.429 484.349 460.451C432.298 465.123 382.723 457.686 337.559 429.379C325.675 421.927 315.067 412.882 304.444 403.822L304.474 403.882Z" fill="url(#paint0_radial_376_242)"/>
<path d="M333.267 373.022C320.963 358.538 311.075 343.948 303.348 327.932C302.328 325.814 302.268 323.605 302.343 321.351C304.818 239.316 303.858 157.25 305.223 75.1994C305.614 51.2348 300.047 45.7808 275.919 45.0596C273.429 44.9845 270.923 44.8793 268.432 44.9545C265.461 45.0296 262.805 44.8493 262.73 40.9128C262.64 36.796 265.461 36.9011 268.357 36.9011C288.598 36.8561 308.825 36.7359 329.066 36.6758C349.547 36.6157 370.043 36.5706 390.525 36.5556C393.406 36.5556 396.962 35.7442 396.872 40.5672C396.782 45.2099 393.346 44.5488 390.42 44.6389C382.932 44.8493 375.46 44.9995 368.123 46.9227C360.621 48.906 356.104 53.3233 354.739 61.1963C352.668 73.141 353.628 85.1609 353.508 97.1357C352.788 161.682 352.443 226.214 351.678 290.761C351.348 319.037 345.976 346.322 333.312 373.037L333.267 373.022Z" fill="#EB001B"/>
<path d="M23.7669 392.148C22.2064 384.966 25.0573 382.187 32.3045 383.073C35.4855 383.464 38.8015 383.043 42.0125 382.637C60.6482 380.353 65.8548 374.899 65.9749 356.028C66.2149 318.511 66.26 281.009 65.8698 243.492C65.7948 236.235 68.0605 232.314 74.3925 228.918C85.1958 223.119 96.2992 218.19 107.718 213.788C112.819 211.82 114.38 212.451 114.35 218.401C114.11 260.906 114.2 303.426 114.26 345.947C114.26 351.175 114.44 356.434 114.935 361.648C116.18 374.659 120.412 379.091 133.061 381.736C138.972 382.968 144.944 382.998 150.916 383.253C153.857 383.373 157.218 382.803 157.173 387.505C157.113 392.298 153.647 391.517 150.781 391.517C109.323 391.517 67.8805 391.502 26.4227 391.517C25.4924 391.517 24.5621 391.832 23.6318 392.013L23.7819 392.163L23.7669 392.148Z" fill="#060606"/>
</g>
<defs>
<radialGradient id="paint0_radial_376_242" cx="0" cy="0" r="1" gradientUnits="userSpaceOnUse" gradientTransform="translate(245.326 442.481) rotate(-123.16) scale(168.707 113.017)">
<stop stop-color="#EB001B"/>
<stop offset="1" stop-color="#060606"/>
</radialGradient>
</defs>
</svg>
