<?xml version="1.0" standalone="no"?>
<!DOCTYPE svg PUBLIC "-//W3C//DTD SVG 20010904//EN"
 "http://www.w3.org/TR/2001/REC-SVG-20010904/DTD/svg10.dtd">
<svg version="1.0" xmlns="http://www.w3.org/2000/svg"
 width="1376.000000pt" height="1376.000000pt" viewBox="0 0 1376.000000 1376.000000"
 preserveAspectRatio="xMidYMid meet">
<metadata>
Created by potrace 1.14, written by Peter Selinger 2001-2017
</metadata>
<g transform="translate(0.000000,1376.000000) scale(0.100000,-0.100000)"
fill="#000000" stroke="none">
<path d="M3788 10875 c-2 -2 -39 -6 -83 -9 -91 -6 -124 -10 -215 -21 -36 -5
-73 -10 -82 -11 -10 -1 -19 -2 -20 -3 -2 -2 -15 -4 -31 -6 -15 -2 -51 -8 -80
-14 -28 -6 -63 -13 -77 -15 -24 -5 -45 -9 -102 -22 -15 -3 -30 -5 -33 -5 -2 0
-23 -6 -45 -14 -22 -8 -41 -14 -43 -14 -25 7 -521 -166 -554 -193 -7 -6 -13
-8 -13 -5 0 4 -26 -7 -57 -23 -32 -17 -63 -30 -70 -30 -7 0 -13 -4 -13 -10 0
-5 -3 -9 -7 -8 -9 2 -129 -56 -147 -72 -7 -5 -16 -7 -19 -3 -4 3 -7 1 -7 -5 0
-7 -5 -12 -10 -12 -6 0 -40 -18 -76 -40 -36 -22 -70 -40 -75 -40 -5 0 -9 -4
-9 -10 0 -5 -5 -10 -10 -10 -9 0 -134 -78 -165 -103 -5 -4 -40 -29 -76 -55
-90 -64 -119 -85 -133 -97 -6 -5 -46 -38 -89 -73 -166 -136 -386 -354 -502
-497 -26 -33 -51 -62 -55 -65 -3 -3 -19 -23 -36 -45 -36 -50 -55 -73 -72 -91
-7 -8 -11 -14 -7 -14 4 0 -1 -7 -10 -16 -30 -31 -180 -261 -253 -389 -52 -92
-162 -316 -162 -330 0 -8 -4 -15 -10 -15 -5 0 -10 -7 -10 -15 0 -8 -14 -44
-31 -80 -17 -37 -32 -71 -33 -78 -1 -7 -4 -16 -7 -22 -6 -10 -40 -109 -45
-130 -2 -5 -12 -36 -23 -67 -12 -32 -23 -66 -25 -75 -1 -10 -6 -25 -9 -33 -6
-15 -26 -92 -32 -120 -2 -8 -10 -42 -18 -75 -16 -62 -47 -214 -52 -250 -1 -11
-7 -54 -13 -95 -30 -201 -37 -306 -37 -570 1 -223 6 -331 20 -445 13 -107 16
-129 29 -210 11 -67 40 -211 56 -276 11 -42 21 -85 23 -95 2 -10 6 -26 9 -34
18 -54 30 -94 34 -117 3 -14 9 -34 14 -43 5 -10 6 -20 3 -24 -3 -3 -2 -6 3 -6
6 0 16 -24 24 -52 7 -29 16 -60 20 -68 12 -23 26 -59 55 -135 15 -38 30 -74
33 -80 4 -5 7 -12 7 -15 1 -3 13 -31 28 -63 15 -32 27 -62 27 -66 0 -5 3 -11
8 -13 4 -1 31 -51 60 -110 29 -60 57 -108 63 -108 5 0 8 -3 7 -7 -4 -12 57
-116 146 -248 44 -66 83 -122 86 -125 3 -3 17 -21 30 -40 14 -19 30 -42 37
-50 244 -305 425 -487 699 -705 56 -44 111 -87 124 -95 12 -8 48 -33 79 -55
61 -43 60 -42 164 -107 159 -100 314 -183 462 -248 177 -78 203 -88 209 -82 3
3 6 0 6 -6 0 -7 3 -11 8 -10 4 0 14 -2 22 -5 84 -37 498 -157 595 -172 27 -5
75 -14 104 -21 13 -3 46 -7 75 -10 28 -3 54 -8 57 -10 4 -2 31 -6 60 -10 30
-3 70 -8 89 -10 197 -25 738 -25 890 1 14 2 48 6 75 9 28 3 61 8 75 10 14 3
43 7 65 10 50 7 77 12 195 38 52 11 102 22 110 23 8 2 15 4 15 5 0 1 8 3 17 5
9 2 32 8 50 14 18 6 44 12 58 15 59 10 369 120 485 172 22 10 42 18 45 19 3 0
49 22 103 48 53 25 100 46 104 46 3 0 9 3 12 8 3 4 33 22 66 38 33 17 62 32
65 35 8 8 40 27 88 51 23 13 42 26 42 31 0 4 5 8 10 8 11 0 152 92 245 159 54
39 59 43 91 69 12 9 36 28 55 42 18 14 46 36 61 50 16 14 44 39 64 55 20 17
72 65 117 107 45 43 86 78 90 78 5 0 14 -6 21 -12 151 -146 304 -277 419 -358
26 -18 47 -37 47 -42 0 -4 6 -8 13 -9 6 0 39 -20 72 -44 33 -24 75 -52 93 -61
17 -9 32 -20 32 -25 0 -5 4 -9 9 -9 5 0 55 -27 110 -60 56 -33 104 -60 106
-60 3 0 17 -8 32 -17 14 -10 32 -18 40 -19 8 -2 22 -9 31 -16 10 -8 42 -25 72
-38 30 -14 57 -27 60 -30 3 -3 10 -6 15 -7 6 -1 39 -15 75 -31 36 -16 81 -35
100 -42 19 -7 49 -19 65 -26 32 -14 265 -93 293 -99 9 -2 42 -11 72 -20 54
-16 74 -21 115 -29 11 -2 40 -9 65 -16 25 -7 54 -14 65 -15 11 -2 47 -8 80
-15 33 -6 74 -13 90 -15 17 -3 39 -7 51 -9 40 -8 140 -20 269 -32 160 -15 696
-8 792 10 11 3 46 7 79 10 32 4 68 9 79 11 11 2 36 7 55 9 30 5 109 20 210 41
21 4 55 12 93 21 4 1 8 2 10 4 1 1 11 3 21 5 11 2 31 7 45 11 14 4 29 8 34 9
4 2 8 3 10 4 1 2 13 5 27 7 50 9 334 108 425 148 17 7 45 20 64 27 62 25 335
161 364 181 15 11 27 16 27 11 0 -4 4 -3 8 3 4 6 34 26 67 44 33 19 62 37 63
42 2 4 8 8 13 8 11 0 86 48 113 73 11 9 25 17 32 17 7 0 14 3 16 8 2 4 46 38
98 77 52 38 97 72 100 75 3 3 17 15 32 26 143 110 403 363 526 514 21 24 44
52 54 61 9 9 42 52 75 96 32 43 66 87 76 97 9 11 17 25 17 32 0 7 4 14 9 16
11 4 146 207 163 245 7 15 16 30 20 33 16 12 193 357 200 390 2 8 6 17 9 20 6
5 73 169 74 180 1 3 6 15 13 26 6 12 8 24 5 28 -3 3 -2 6 4 6 5 0 10 6 10 13
0 6 13 48 28 92 31 93 75 241 79 270 2 11 6 30 10 42 8 24 7 20 34 153 21 100
27 133 37 215 4 28 8 61 10 75 9 51 19 166 20 212 0 27 2 48 5 48 7 0 5 492
-3 555 -3 28 -9 79 -12 115 -4 36 -9 79 -12 95 -8 47 -11 67 -17 115 -7 50
-13 82 -21 120 -3 14 -12 54 -19 90 -17 78 -18 84 -46 191 -12 46 -24 91 -27
99 -4 8 -7 17 -7 20 -5 19 -69 209 -76 225 -5 11 -20 49 -34 85 -49 127 -152
348 -192 411 -12 20 -20 40 -17 43 4 3 1 6 -5 6 -6 0 -14 9 -17 21 -6 19 -73
130 -150 249 -46 71 -159 225 -167 228 -5 2 -8 8 -8 13 0 5 -8 17 -17 27 -10
10 -31 35 -48 56 -80 104 -310 345 -408 431 -23 20 -141 120 -159 135 -10 8
-26 22 -36 30 -31 27 -165 125 -232 171 -36 24 -66 47 -68 52 -2 4 -7 7 -12 7
-5 0 -36 18 -69 40 -33 22 -65 40 -71 40 -5 0 -10 5 -10 10 0 6 -9 10 -20 10
-11 0 -20 4 -20 8 0 9 -317 172 -400 207 -25 10 -63 26 -85 36 -22 9 -87 33
-145 54 -58 20 -114 41 -125 46 -22 9 -216 65 -255 73 -14 3 -45 11 -70 17
-25 6 -54 13 -65 14 -11 2 -20 4 -20 5 0 1 -9 3 -20 5 -11 2 -29 5 -40 8 -19
4 -73 14 -120 23 -33 5 -239 32 -255 32 -8 1 -51 4 -95 9 -100 9 -533 10 -640
1 -101 -9 -251 -26 -290 -33 -16 -3 -55 -10 -85 -15 -30 -6 -66 -12 -80 -15
-14 -3 -38 -8 -55 -11 -24 -4 -111 -24 -170 -38 -45 -11 -120 -33 -230 -68
-71 -23 -132 -42 -135 -43 -3 -1 -22 -9 -44 -18 -21 -9 -41 -17 -45 -17 -10 0
-168 -67 -251 -107 -41 -20 -77 -37 -80 -38 -35 -9 -344 -186 -444 -255 -12
-8 -49 -33 -81 -55 -32 -22 -65 -44 -73 -50 -9 -5 -29 -22 -45 -37 -17 -16
-33 -28 -37 -28 -4 0 -16 -8 -27 -17 -11 -10 -42 -36 -69 -58 -27 -22 -56 -48
-66 -57 -10 -10 -20 -18 -22 -18 -2 0 -20 -15 -39 -32 -128 -122 -159 -149
-167 -146 -5 2 -39 32 -77 68 -61 58 -147 134 -212 186 -13 10 -28 24 -35 29
-6 6 -38 31 -71 55 -33 25 -62 48 -65 51 -14 17 -291 195 -395 254 -138 79
-339 176 -470 228 -49 20 -103 41 -120 48 -16 7 -34 13 -40 14 -5 2 -50 16
-100 33 -131 44 -287 87 -405 111 -30 6 -66 14 -80 17 -31 6 -46 9 -135 23
-83 14 -134 20 -195 26 -25 2 -45 5 -45 5 0 8 -629 23 -637 15z"/>
</g>
</svg>
